<?xml version="1.0" standalone="no"?>
<!DOCTYPE svg PUBLIC "-//W3C//DTD SVG 20010904//EN"
 "http://www.w3.org/TR/2001/REC-SVG-20010904/DTD/svg10.dtd">
<svg version="1.0" xmlns="http://www.w3.org/2000/svg"
 width="5999.000000pt" height="3999.000000pt" viewBox="0 0 5999.000000 3999.000000"
 preserveAspectRatio="xMidYMid meet">

<g transform="translate(0.000000,3999.000000) scale(0.100000,-0.100000)"
fill="#000000" stroke="none">
<path d="M0 19995 l0 -19995 29995 0 29995 0 0 19995 0 19995 -29995 0 -29995
0 0 -19995z m27717 9323 c6 -5 17 -8 25 -7 26 3 38 -1 38 -15 0 -17 22 -26 65
-26 47 0 65 -9 66 -34 1 -18 2 -18 6 -3 4 16 11 18 36 12 18 -4 52 -8 77 -9
25 -1 54 -6 65 -12 11 -6 35 -14 53 -18 19 -3 41 -15 51 -27 12 -15 34 -23 78
-28 34 -4 68 -13 77 -20 9 -8 16 -10 16 -6 0 5 8 1 18 -8 19 -17 121 -48 164
-51 15 0 33 -8 40 -17 7 -9 39 -22 71 -29 34 -8 57 -18 57 -27 0 -7 7 -13 15
-13 8 0 23 -4 33 -9 9 -6 38 -13 63 -16 31 -4 54 -14 69 -30 13 -14 31 -25 40
-25 18 0 61 -29 45 -30 -5 0 -18 -7 -29 -15 -17 -13 -17 -14 3 -36 12 -13 21
-26 21 -31 0 -4 -28 -7 -62 -5 -35 1 -70 0 -78 -3 -9 -3 -20 6 -29 28 -15 32
-45 43 -66 23 -16 -13 -128 -41 -169 -41 -53 0 -76 -15 -74 -48 4 -54 63 -78
120 -48 19 10 29 11 37 3 9 -9 14 -8 21 2 6 11 12 12 22 3 11 -8 17 -7 26 9 7
11 8 19 2 19 -5 0 -10 -5 -10 -12 0 -8 -6 -6 -17 5 -16 16 -16 18 2 31 17 12
21 12 28 0 6 -10 30 -13 110 -10 124 5 144 1 151 -30 8 -31 55 -74 73 -67 11
4 14 0 12 -12 -3 -15 -13 -18 -49 -18 -25 0 -61 4 -81 8 -28 6 -37 4 -42 -9
-9 -24 2 -45 34 -62 16 -8 29 -19 29 -24 0 -6 5 -10 10 -10 6 0 10 7 10 15 0
26 39 18 46 -10 4 -16 13 -25 25 -25 12 0 19 -7 19 -20 0 -27 -25 -36 -55 -20
-13 7 -32 9 -42 5 -10 -4 -47 -8 -83 -10 -36 -1 -69 -3 -75 -5 -24 -6 -46 1
-64 21 -17 19 -24 20 -48 11 -15 -6 -48 -12 -73 -15 -26 -2 -61 -15 -84 -31
-47 -32 -76 -34 -76 -5 0 18 -5 20 -55 18 -45 -2 -59 1 -78 19 -21 20 -27 21
-58 10 -18 -7 -36 -13 -37 -15 -2 -1 -7 -18 -12 -38 -7 -33 -6 -37 17 -46 14
-5 27 -18 30 -30 3 -12 12 -19 22 -17 9 2 22 -3 29 -12 11 -13 13 -13 26 3 17
22 32 22 44 0 8 -14 12 -12 26 15 9 17 20 34 26 37 11 7 80 -32 80 -45 0 -5 9
-11 20 -15 12 -4 24 -21 30 -46 9 -31 15 -39 34 -39 19 0 22 4 18 29 -3 22 1
29 16 33 23 6 52 -8 71 -34 23 -33 59 -41 83 -18 30 28 83 26 124 -5 35 -27
88 -31 112 -7 26 24 85 -5 111 -55 10 -20 9 -23 -9 -23 -11 0 -20 5 -20 11 0
6 -7 3 -16 -6 -9 -9 -13 -19 -9 -23 4 -4 10 -1 12 6 3 8 14 2 32 -17 40 -42
73 -48 135 -23 28 11 62 22 76 24 21 2 26 9 28 39 3 34 5 36 41 37 29 1 43 -4
61 -23 29 -31 37 -31 59 -3 29 35 44 15 36 -48 -5 -40 -3 -58 7 -68 21 -21 48
-1 48 34 0 37 12 38 38 5 24 -30 28 -31 35 -4 4 17 10 20 24 14 10 -5 44 -9
76 -10 54 -1 60 -4 97 -42 31 -31 45 -39 65 -35 21 3 25 0 25 -18 0 -16 4 -20
16 -16 9 3 25 6 36 6 27 0 20 42 -9 55 -13 5 -23 13 -23 17 0 5 -8 8 -19 8
-11 0 -23 12 -31 29 -6 16 -21 38 -33 49 -22 21 -23 21 -64 2 -41 -18 -42 -18
-59 1 -9 10 -26 19 -36 19 -13 0 -20 10 -25 31 -7 36 -54 70 -84 62 -13 -4
-28 3 -41 16 -11 13 -27 20 -35 17 -21 -9 -43 12 -43 39 0 33 -10 55 -25 55
-7 0 -18 7 -25 15 -9 11 -23 14 -46 9 -27 -5 -34 -2 -44 16 -8 16 -18 21 -35
18 -27 -6 -36 -1 -51 27 -13 22 -35 27 -41 8 -3 -7 2 -13 11 -13 19 0 38 -33
30 -54 -7 -19 -1 -19 -69 -2 -72 19 -72 19 -78 63 -8 60 -18 95 -34 133 -9 19
-18 55 -21 80 -5 48 -17 63 -44 54 -9 -2 -19 0 -23 6 -3 5 -3 10 2 11 4 0 24
2 43 4 19 2 43 -3 53 -10 28 -19 57 -72 51 -90 -7 -17 -1 -17 71 -6 43 7 52 6
63 -10 7 -11 18 -17 23 -13 17 10 79 -6 79 -20 0 -20 38 -49 55 -42 9 3 26 -1
38 -9 12 -8 17 -15 12 -15 -20 -1 61 -39 83 -40 19 0 22 -4 17 -19 -5 -17 0
-21 30 -27 19 -3 37 -10 40 -14 3 -5 39 -25 81 -45 69 -32 127 -69 162 -102 7
-7 20 -13 28 -13 22 0 86 -35 108 -59 11 -12 25 -21 33 -21 7 0 21 -9 31 -21
9 -11 50 -46 90 -76 45 -35 78 -68 87 -88 10 -25 18 -32 32 -29 14 4 27 -6 47
-35 20 -28 40 -44 69 -53 34 -11 43 -18 45 -40 2 -19 9 -28 21 -28 20 0 54
-33 45 -43 -4 -4 4 -11 18 -16 13 -5 30 -16 37 -25 7 -9 17 -13 22 -10 5 3 21
-1 36 -9 16 -8 41 -20 56 -26 16 -6 31 -20 34 -30 3 -10 23 -27 45 -37 22 -10
45 -25 51 -34 7 -9 23 -23 37 -30 13 -7 31 -19 38 -27 7 -7 20 -13 27 -13 7 0
26 -15 42 -33 15 -18 52 -53 81 -77 28 -24 52 -47 52 -52 0 -5 16 -26 36 -46
70 -72 77 -80 71 -96 -7 -18 -23 -21 -32 -6 -3 6 -16 10 -29 10 -12 0 -26 4
-31 9 -18 18 -106 61 -124 61 -10 0 -24 7 -31 15 -7 8 -19 15 -26 15 -8 0 -14
5 -14 10 0 6 -10 10 -23 10 -13 0 -44 14 -70 31 -29 19 -53 28 -65 25 -21 -7
-48 18 -54 49 -3 15 -11 20 -36 19 -27 -2 -33 2 -39 25 -3 14 -15 38 -25 54
-11 15 -16 27 -11 27 4 0 -4 11 -19 25 -15 14 -31 37 -34 51 -6 22 -11 25 -36
22 -23 -4 -37 3 -68 33 -26 26 -45 36 -58 32 -11 -2 -29 0 -41 7 -12 6 -36 8
-55 4 -33 -6 -33 -7 -18 -25 20 -24 48 -25 61 -2 14 26 37 1 45 -47 6 -41 24
-51 55 -31 20 13 61 -26 61 -56 0 -22 -9 -27 -36 -24 -7 1 -14 -5 -18 -14 -7
-19 -40 -19 -56 0 -7 8 -23 15 -35 15 -12 0 -34 9 -48 20 -14 11 -31 20 -39
20 -8 0 -18 4 -23 9 -6 5 -21 11 -35 13 -17 2 -26 10 -28 26 -4 23 -4 23 -24
5 -15 -12 -22 -14 -25 -6 -12 35 -51 78 -73 81 -14 2 -29 8 -35 14 -7 7 -5 9
5 6 8 -2 22 3 32 11 12 11 55 19 126 26 105 10 107 11 107 35 0 14 4 36 9 49
10 27 -6 48 -21 29 -6 -7 -12 -22 -14 -32 -5 -24 -29 -34 -29 -12 0 9 5 16 10
16 23 0 7 21 -26 35 -20 8 -38 24 -41 35 -3 12 -17 23 -32 26 -14 3 -34 9 -43
15 -12 6 -25 5 -40 -3 -13 -7 -24 -14 -26 -15 -8 -3 34 -43 45 -43 7 0 13 -9
13 -20 0 -14 -9 -21 -35 -26 -35 -6 -49 -24 -20 -24 8 0 15 -2 15 -4 0 -2 3
-11 6 -20 4 -10 1 -16 -9 -16 -8 0 -17 -7 -20 -15 -5 -12 -12 -12 -37 -3 -37
12 -47 32 -30 53 11 13 10 18 -6 30 -12 8 -23 10 -28 4 -6 -5 -25 -9 -44 -9
-26 0 -33 -4 -30 -17 2 -10 13 -19 25 -21 29 -4 37 -29 12 -37 -28 -9 -42 -40
-24 -55 17 -14 11 -32 -9 -24 -8 3 -16 18 -20 35 -5 24 -10 29 -36 29 -16 0
-30 -4 -30 -9 0 -6 -20 -13 -45 -17 -34 -5 -51 -2 -71 11 -19 12 -37 15 -68
11 -27 -4 -50 -1 -69 9 -20 10 -35 12 -52 5 -17 -6 -37 -5 -65 5 -22 8 -59 14
-83 14 -23 -1 -58 6 -77 14 -56 24 -127 29 -243 18 -93 -9 -113 -8 -139 5 -16
9 -49 17 -72 19 -22 2 -68 9 -100 15 -92 18 -234 0 -311 -40 -44 -22 -90 -26
-132 -9 -15 6 -72 12 -125 13 -53 0 -100 4 -104 8 -4 4 -12 4 -18 0 -15 -10
-53 -11 -331 -12 -132 -1 -248 2 -258 6 -10 3 -39 4 -65 0 -26 -3 -65 -8 -87
-9 -22 -2 -47 -6 -55 -9 -63 -26 -108 -35 -125 -26 -11 7 -20 7 -24 1 -3 -6
-16 -13 -27 -17 -12 -4 -29 -15 -39 -26 -18 -20 -18 -21 5 -45 17 -18 21 -28
13 -36 -7 -7 -17 -8 -25 -3 -7 5 -33 9 -58 11 -25 1 -57 5 -72 8 -22 6 -32 2
-47 -16 -24 -29 -18 -36 46 -52 46 -12 55 -12 89 5 25 12 41 15 48 8 5 -5 18
-10 28 -10 11 0 27 -13 36 -30 18 -32 27 -36 37 -20 5 8 11 7 20 0 10 -8 19
-8 35 0 27 14 70 -10 70 -40 0 -28 47 -38 64 -14 12 16 19 17 60 7 39 -9 48
-8 55 5 8 14 16 14 67 2 33 -7 63 -17 68 -21 11 -10 -19 -25 -68 -33 -21 -4
-51 -17 -67 -28 -30 -23 -28 -23 -94 26 -8 6 -23 0 -44 -15 -21 -15 -46 -24
-69 -24 -33 0 -37 -3 -40 -28 -3 -20 -8 -27 -20 -25 -9 3 -16 9 -15 16 2 6 -9
15 -23 18 -20 5 -31 1 -50 -20 -30 -32 -78 -35 -96 -6 -10 15 -24 20 -56 20
-25 0 -41 -4 -37 -9 8 -14 -28 -31 -66 -31 -32 0 -129 -30 -129 -40 0 -4 -19
-5 -42 -5 -33 1 -51 -5 -79 -27 -38 -29 -69 -37 -69 -16 0 6 -3 8 -7 5 -3 -4
-13 -1 -21 5 -11 10 -17 8 -28 -7 -8 -10 -14 -27 -14 -37 0 -10 -4 -18 -10
-18 -5 0 -10 6 -10 13 0 7 -6 22 -14 32 -12 16 -16 17 -30 6 -9 -7 -16 -24
-16 -37 0 -29 -24 -32 -53 -6 -11 9 -17 11 -13 5 5 -9 0 -13 -13 -13 -10 0
-21 5 -23 11 -3 8 -18 4 -45 -9 -40 -21 -41 -22 -45 -86 -5 -75 -14 -90 -35
-58 -9 12 -20 22 -25 22 -4 0 -39 23 -75 52 -52 40 -74 51 -99 50 -19 -2 -41
6 -58 19 -27 21 -28 24 -23 103 2 45 14 125 26 178 23 109 24 102 -39 231 -37
74 -45 84 -89 106 -43 21 -58 23 -120 18 -38 -3 -78 -10 -88 -15 -10 -6 -44
-12 -77 -13 l-58 -4 -67 107 c-36 58 -72 116 -78 127 -28 45 -80 60 -229 63
-127 3 -143 1 -185 -19 -25 -13 -51 -23 -58 -23 -6 0 -26 -7 -43 -16 -30 -16
-33 -15 -48 4 -9 11 -22 59 -29 108 -7 49 -17 102 -22 118 -13 42 -11 96 4 97
6 1 82 3 167 4 166 2 197 9 267 62 18 14 47 26 65 28 21 2 34 9 39 23 10 26
17 30 74 38 27 3 63 16 80 29 16 12 57 35 90 50 33 15 67 33 75 40 8 7 35 18
60 25 25 7 52 18 60 25 8 7 29 17 45 21 17 4 43 18 58 31 27 22 35 25 82 28
36 2 105 26 105 35 0 6 5 10 10 10 6 0 46 16 88 36 42 20 95 39 116 42 22 3
55 16 74 28 38 26 93 44 135 44 16 0 47 11 70 24 23 13 57 27 75 31 18 4 45
13 60 21 15 8 45 14 67 14 22 0 56 4 75 10 19 5 86 12 149 15 93 4 120 9 149
27 34 21 53 26 177 49 33 7 77 20 97 30 21 11 57 19 80 19 59 1 129 16 137 29
4 6 18 11 32 11 13 -1 51 6 84 13 59 14 78 13 102 -5z m-4902 -388 c149 -5
326 -14 395 -20 69 -5 179 -10 245 -10 66 0 165 -7 219 -15 55 -8 116 -15 137
-15 21 0 74 -6 116 -14 81 -15 185 -31 310 -47 85 -10 196 -40 242 -64 97 -50
209 -229 166 -265 -10 -9 -15 -9 -15 -1 0 6 -6 11 -14 11 -8 0 -22 7 -30 15
-22 22 -104 57 -116 50 -6 -4 -68 -8 -138 -10 -70 -2 -150 -6 -179 -10 -75
-11 -284 13 -378 43 -77 25 -89 26 -365 27 -182 0 -298 5 -320 12 -101 33
-136 43 -143 43 -4 0 -16 -19 -26 -43 -22 -50 -58 -74 -89 -58 -27 14 -67 14
-91 -1 -15 -9 -31 -7 -80 9 -34 12 -63 17 -66 13 -7 -12 5 -60 21 -85 24 -39
27 -89 6 -115 -18 -22 -22 -22 -65 -12 -69 18 -74 16 -82 -25 -13 -71 -20 -76
-86 -69 -38 5 -59 3 -59 -3 0 -6 19 -32 43 -58 89 -101 115 -139 122 -175 6
-29 4 -39 -8 -44 -17 -6 -88 39 -141 89 -18 18 -54 48 -80 67 -25 19 -66 55
-90 79 -35 35 -51 44 -88 48 -41 5 -47 3 -58 -18 -7 -13 -26 -39 -41 -57 -38
-43 -37 -73 6 -121 29 -32 35 -46 35 -84 0 -26 -8 -62 -17 -82 -16 -34 -16
-36 5 -58 26 -28 28 -57 6 -99 -34 -65 -35 -86 -7 -112 32 -30 43 -104 19
-128 -9 -9 -42 -22 -73 -28 -32 -7 -63 -13 -69 -15 -13 -4 -39 -116 -32 -137
13 -33 -49 -76 -133 -92 -19 -3 -42 -15 -52 -26 -9 -11 -26 -20 -37 -20 -11 0
-37 -15 -57 -33 -98 -84 -117 -95 -186 -102 -66 -7 -91 -25 -67 -49 18 -18 11
-52 -16 -77 -25 -23 -26 -23 -55 -6 -37 21 -57 21 -96 2 -39 -19 -58 -42 -74
-87 -7 -21 -19 -38 -26 -38 -18 0 -73 -41 -73 -54 0 -6 -25 -26 -54 -43 -50
-31 -54 -36 -61 -80 -4 -27 -11 -53 -16 -59 -14 -17 -69 -128 -69 -140 0 -5
-13 -23 -30 -39 -41 -39 -46 -73 -20 -150 24 -71 21 -108 -11 -161 -10 -17
-19 -46 -19 -63 0 -18 -5 -41 -11 -52 -7 -14 -7 -30 2 -56 11 -34 10 -38 -12
-56 -21 -17 -23 -26 -21 -78 3 -50 0 -64 -22 -92 -14 -19 -50 -46 -80 -60 -60
-29 -59 -28 -27 -110 26 -67 1 -117 -59 -117 -14 0 -34 -6 -45 -14 -11 -7 -53
-30 -92 -51 -40 -21 -73 -43 -73 -50 0 -20 -83 -94 -170 -150 -47 -30 -93 -61
-103 -67 -11 -7 -30 -35 -44 -63 -14 -27 -45 -72 -69 -99 -24 -26 -44 -53 -44
-59 0 -5 -15 -28 -33 -51 -18 -23 -34 -54 -35 -71 -1 -16 -7 -34 -12 -39 -6
-6 -10 -21 -10 -33 0 -13 -12 -36 -27 -50 -16 -14 -26 -30 -24 -37 2 -6 3 -28
2 -49 -2 -47 20 -79 135 -192 85 -84 146 -135 163 -135 5 0 20 -14 33 -30 13
-17 49 -59 81 -93 32 -34 70 -80 85 -102 15 -22 41 -55 58 -75 184 -205 228
-258 239 -284 8 -17 23 -40 35 -51 12 -11 33 -40 47 -65 38 -72 66 -114 96
-150 50 -58 73 -148 51 -199 -17 -41 -43 -40 -91 2 -61 52 -77 58 -102 40 -12
-8 -32 -13 -43 -10 -14 4 -27 -1 -38 -15 -16 -21 -17 -21 -48 -2 -38 22 -39
27 -7 44 20 11 27 11 40 0 19 -15 30 -5 41 38 4 16 9 20 14 12 5 -9 8 -8 12 2
6 17 -19 78 -32 78 -6 0 -10 9 -10 21 0 11 -26 47 -60 82 -33 34 -60 68 -60
75 0 7 -10 17 -22 23 -13 6 -42 38 -66 71 -24 33 -51 62 -61 65 -9 2 -21 19
-27 36 -11 37 -49 60 -76 46 -15 -8 -20 -3 -33 27 -8 20 -15 47 -15 60 0 13
-4 24 -8 24 -21 0 -92 66 -92 85 0 25 -18 45 -40 45 -9 0 -25 9 -35 20 -9 10
-22 18 -28 17 -7 -1 -13 9 -15 23 -5 30 -31 62 -44 54 -5 -3 -46 30 -90 75
-44 45 -88 81 -97 81 -9 0 -51 34 -94 75 -42 41 -83 75 -90 75 -7 0 -28 16
-47 35 -19 19 -43 35 -54 35 -12 0 -34 9 -51 20 -16 11 -50 22 -75 26 -25 3
-62 12 -84 20 -37 14 -76 11 -76 -6 0 -5 5 -12 10 -15 16 -10 12 -23 -10 -35
-15 -8 -36 -7 -82 5 -34 9 -65 19 -68 24 -3 5 -21 12 -40 16 -19 4 -65 22
-103 41 -37 19 -75 34 -85 34 -9 0 -36 13 -59 29 -24 16 -63 32 -89 36 -31 4
-54 15 -70 33 -37 39 -39 64 -9 110 25 38 65 64 145 92 77 28 268 32 346 9 19
-6 40 -6 55 0 13 5 83 67 156 138 83 82 169 155 234 199 56 38 140 102 188
142 47 41 97 83 111 95 299 254 471 435 729 771 58 75 168 262 201 344 18 42
38 84 45 92 7 8 17 30 23 49 7 18 31 63 55 100 23 36 48 77 55 91 7 14 26 48
43 75 18 28 50 84 72 125 22 41 55 98 73 126 54 83 135 215 173 282 20 34 63
106 97 160 69 110 89 144 135 222 37 64 81 133 90 140 4 3 16 25 29 50 12 25
32 59 44 75 13 17 60 104 105 194 87 176 119 220 264 363 85 83 127 110 250
162 21 9 57 16 80 17 23 0 62 4 87 9 25 5 90 7 145 4 55 -2 222 -8 370 -14z
m6271 -391 c7 -12 -15 -31 -28 -23 -9 6 1 34 12 34 5 0 12 -5 16 -11z m320
-273 c10 -8 16 -18 12 -21 -12 -12 -58 4 -58 20 0 19 20 19 46 1z m-2712 -937
c-3 -5 -17 -9 -31 -9 -21 0 -23 3 -14 14 12 15 55 10 45 -5z m3407 -6 c18 -18
-9 -26 -42 -13 -16 7 -29 16 -29 20 0 10 59 5 71 -7z m1229 -128 c0 -8 -4 -15
-9 -15 -13 0 -22 16 -14 24 11 11 23 6 23 -9z m-430 -330 c5 -13 18 -30 30
-37 11 -7 20 -20 20 -28 0 -13 2 -13 10 0 7 12 13 10 33 -10 30 -30 49 -44 62
-47 27 -6 81 -29 87 -38 15 -20 8 -27 -19 -20 -16 4 -44 7 -64 6 -23 -1 -43 5
-58 18 -13 11 -47 25 -77 31 -29 6 -56 15 -59 20 -3 5 -20 6 -39 3 -30 -5 -34
-2 -41 23 -14 49 -13 64 4 64 9 0 24 9 34 20 24 29 65 26 77 -5z m-4605 -715
c77 -5 194 -19 260 -31 66 -11 157 -25 202 -29 45 -5 87 -11 92 -15 15 -8 146
-33 268 -49 56 -8 107 -17 113 -21 11 -7 53 -15 220 -39 52 -8 109 -19 125
-24 17 -6 75 -17 130 -26 55 -9 147 -28 205 -42 58 -13 141 -31 185 -39 44 -7
116 -22 160 -33 44 -11 105 -23 135 -27 30 -4 63 -12 74 -17 10 -6 42 -14 70
-19 95 -16 191 -36 306 -63 144 -35 272 -64 330 -76 55 -12 118 -27 190 -47
30 -8 88 -21 128 -28 40 -8 77 -17 83 -21 13 -7 54 -19 144 -39 100 -23 372
-100 480 -136 17 -5 59 -19 95 -30 36 -12 108 -34 160 -51 52 -17 109 -34 125
-39 17 -4 75 -24 130 -44 55 -20 143 -51 195 -69 147 -51 255 -92 291 -110 18
-9 37 -16 43 -16 7 0 30 -9 51 -20 22 -12 66 -30 99 -41 32 -11 77 -29 100
-39 22 -11 59 -26 81 -34 69 -24 188 -76 201 -87 6 -5 38 -23 70 -40 33 -16
78 -42 100 -57 23 -15 61 -40 85 -56 74 -49 168 -153 211 -232 51 -95 62 -172
63 -424 0 -194 -21 -786 -29 -798 -2 -4 -9 -71 -16 -147 -11 -140 -20 -230
-41 -380 -42 -310 -62 -444 -84 -550 -8 -44 -20 -109 -26 -145 -6 -36 -17 -88
-25 -116 -8 -28 -14 -62 -14 -77 0 -14 -5 -38 -11 -54 -6 -15 -14 -50 -19 -78
-8 -51 -47 -214 -82 -340 -10 -38 -26 -95 -34 -125 -18 -65 -71 -240 -89 -290
-7 -19 -18 -51 -24 -70 -7 -19 -16 -48 -21 -65 -4 -16 -22 -64 -39 -105 -17
-41 -31 -78 -31 -82 0 -8 -49 -118 -91 -204 -16 -33 -29 -63 -29 -67 0 -21
-219 -464 -237 -479 -7 -6 -13 -16 -13 -24 0 -7 -13 -33 -30 -57 -16 -25 -30
-48 -30 -53 0 -4 -13 -28 -28 -53 -16 -25 -55 -90 -86 -143 -31 -54 -61 -100
-67 -103 -5 -4 -9 -14 -9 -24 0 -10 -7 -25 -16 -32 -9 -7 -38 -47 -65 -89 -26
-41 -60 -91 -74 -110 -15 -19 -44 -60 -65 -90 -22 -30 -50 -69 -64 -86 -15
-18 -26 -36 -26 -41 0 -6 -10 -18 -21 -29 -12 -10 -38 -44 -59 -74 -21 -30
-53 -74 -71 -96 -19 -23 -50 -61 -69 -85 -19 -24 -84 -95 -145 -157 l-110
-113 2 -90 c3 -117 -25 -261 -71 -359 -45 -96 -138 -192 -206 -210 -25 -6 -67
-18 -94 -26 -62 -18 -180 -18 -248 0 -88 24 -93 27 -89 61 2 18 -78 87 -96 83
-12 -2 -24 -21 -34 -53 -13 -40 -21 -52 -50 -63 -26 -11 -41 -12 -65 -3 -43
16 -59 14 -107 -11 -53 -28 -107 -48 -130 -48 -11 0 -59 -14 -107 -31 -49 -17
-102 -29 -117 -27 -24 3 -29 8 -33 42 -5 37 -8 40 -60 58 -51 17 -57 17 -110
2 -30 -9 -89 -19 -130 -23 -70 -6 -75 -8 -90 -36 -16 -31 -89 -142 -114 -172
-8 -10 -36 -44 -62 -75 -36 -45 -53 -58 -73 -58 -39 0 -56 18 -76 78 -9 28
-21 52 -26 52 -5 0 -9 7 -9 15 0 23 57 118 85 143 39 34 30 53 -29 58 -17 1
-53 5 -81 9 l-50 7 -70 -138 c-139 -277 -285 -447 -387 -452 -41 -3 -45 -1
-61 33 -9 20 -17 41 -17 47 0 6 -11 21 -24 33 -17 16 -22 29 -19 48 5 27 52
69 90 81 20 6 69 65 115 135 9 14 21 31 26 37 5 5 15 21 22 35 7 13 28 47 47
76 35 54 40 90 13 103 -23 11 -98 31 -165 42 -33 6 -94 21 -135 34 -41 13 -83
24 -93 24 -10 0 -45 9 -78 20 -101 34 -110 23 -113 -153 -1 -110 -16 -149 -58
-160 -27 -7 -73 39 -119 119 l-32 57 12 93 c19 156 32 135 -136 215 -82 39
-159 76 -173 84 -14 8 -47 25 -75 39 -27 14 -61 32 -75 40 -14 8 -38 21 -55
29 -16 8 -65 33 -109 56 l-78 41 7 -37 c3 -21 9 -66 12 -101 4 -57 2 -66 -22
-97 -29 -39 -63 -46 -87 -17 -22 24 -74 130 -98 200 -40 115 -83 182 -145 224
-31 21 -62 38 -68 38 -6 0 -42 14 -80 32 -82 38 -89 35 -132 -48 -16 -32 -38
-60 -47 -62 -23 -4 -108 79 -108 106 0 12 -9 27 -20 34 -12 8 -20 24 -20 39 0
14 -8 33 -17 41 -18 15 -114 48 -138 48 -8 0 -41 12 -74 26 -33 15 -67 24 -75
21 -8 -3 -18 -23 -22 -44 -8 -51 -26 -64 -67 -50 -66 21 -153 60 -198 88 -25
16 -59 34 -76 40 -21 7 -35 21 -42 40 -6 17 -19 42 -30 58 -15 20 -21 49 -25
117 -2 49 -8 149 -12 222 l-7 134 61 57 c82 79 207 161 244 161 19 0 40 -10
59 -29 26 -26 29 -36 29 -94 0 -76 -17 -104 -83 -136 -24 -12 -54 -32 -66 -45
-31 -33 -16 -59 46 -82 27 -10 57 -23 68 -29 18 -11 79 -31 290 -95 33 -10 94
-26 135 -35 41 -9 102 -23 136 -31 69 -16 101 -18 108 -5 7 10 -66 154 -120
236 -21 33 -51 93 -66 133 l-27 74 26 24 c39 36 102 34 142 -7 17 -17 31 -35
31 -41 0 -5 13 -27 29 -47 15 -20 61 -98 100 -173 52 -98 78 -138 90 -138 17
0 98 49 195 116 90 63 214 112 308 121 41 4 51 1 73 -21 22 -22 25 -33 25 -96
0 -82 -14 -103 -76 -113 -42 -7 -134 -43 -174 -68 -14 -9 -49 -31 -77 -48 -29
-18 -51 -37 -48 -41 8 -13 57 -26 180 -50 61 -11 130 -25 155 -31 25 -6 106
-24 180 -39 74 -15 189 -39 255 -53 225 -47 295 -58 315 -52 22 7 28 27 60
180 36 173 48 265 42 331 -5 62 -4 64 22 74 34 13 82 13 106 0 39 -21 60 -84
59 -183 0 -51 -5 -114 -10 -142 -5 -27 -13 -79 -18 -115 -5 -36 -15 -91 -22
-122 -9 -40 -10 -61 -3 -68 6 -6 39 -15 75 -20 35 -5 96 -16 134 -24 39 -9 95
-21 125 -27 30 -6 85 -18 122 -26 38 -8 74 -13 82 -10 8 3 18 34 25 79 6 40
17 116 25 168 8 52 18 183 21 290 7 192 7 196 -20 295 -48 175 -45 208 20 221
59 11 98 -14 135 -86 45 -88 72 -395 51 -590 -6 -58 -16 -177 -22 -264 -8
-129 -8 -161 3 -171 7 -6 56 -20 108 -29 52 -9 107 -22 122 -28 41 -15 76 -3
84 30 4 15 12 36 19 47 6 11 17 42 24 68 6 27 18 59 26 71 20 30 32 254 16
285 -19 34 19 71 71 71 45 0 59 -18 94 -118 40 -113 29 -280 -28 -445 -22 -62
-15 -87 24 -87 11 0 47 -7 81 -15 193 -46 236 -55 269 -55 20 0 38 6 41 13 6
18 -25 93 -88 211 -65 122 -70 158 -26 205 17 18 39 31 54 31 24 0 77 -40 77
-59 0 -6 13 -30 30 -54 25 -37 65 -117 111 -222 13 -30 36 -105 44 -143 8 -41
52 -67 88 -53 18 7 31 26 46 66 24 63 27 124 9 189 -10 39 -9 49 7 80 38 70
118 68 148 -3 39 -91 45 -146 34 -326 -2 -38 -1 -40 30 -43 19 -2 54 6 82 19
58 27 74 63 65 144 -10 88 34 155 101 155 32 0 66 -27 79 -64 6 -16 10 -14 49
18 23 21 47 41 52 45 27 23 205 249 205 261 0 5 14 19 30 32 17 12 30 28 30
35 0 7 9 22 20 33 10 10 31 36 45 57 14 21 47 65 74 98 28 33 50 64 50 68 1 4
19 30 41 58 22 28 40 57 40 64 0 7 9 15 20 18 13 3 22 17 26 37 4 17 13 34 20
37 15 6 54 68 54 87 0 7 11 23 25 36 14 13 25 29 25 37 0 7 15 30 34 51 19 20
36 48 37 62 2 14 14 29 27 35 12 5 22 17 22 25 0 9 16 40 35 70 19 30 35 61
35 67 0 7 16 33 35 59 19 25 35 56 35 69 0 13 6 28 14 32 15 9 46 65 46 84 0
7 10 24 23 38 13 15 29 44 36 66 8 22 25 57 38 77 12 21 23 48 23 62 0 13 7
29 15 36 8 7 15 17 15 23 0 6 6 18 14 26 8 9 17 27 20 41 4 26 23 68 56 130
11 19 19 43 20 53 0 10 11 40 25 67 14 27 25 57 25 67 0 10 11 40 24 68 14 27
35 84 47 125 13 41 29 84 36 96 7 11 16 43 19 70 4 27 17 69 29 94 13 25 26
65 30 90 4 25 20 86 37 135 16 50 32 119 35 155 3 36 12 75 19 87 8 13 23 74
34 136 10 63 26 133 33 158 8 24 25 98 37 164 12 66 28 140 35 165 7 25 21
101 30 170 9 69 23 152 30 185 8 33 21 141 30 240 8 99 19 221 25 270 22 206
29 299 35 477 4 102 10 275 14 385 12 326 -14 412 -151 520 -80 63 -155 110
-199 124 -19 7 -45 20 -58 31 -13 10 -42 23 -64 29 -22 6 -55 22 -72 35 -18
13 -41 24 -52 24 -31 0 -86 21 -109 41 -11 11 -41 22 -67 25 -26 4 -52 13 -59
21 -14 18 -74 43 -100 43 -11 0 -43 11 -70 25 -28 14 -71 30 -95 35 -24 6 -56
19 -71 30 -15 11 -56 26 -90 34 -35 8 -72 22 -81 30 -10 9 -49 23 -87 32 -38
8 -90 26 -115 40 -26 13 -63 24 -82 24 -19 0 -59 13 -90 30 -31 17 -67 30 -79
30 -24 0 -66 12 -142 41 -27 11 -60 19 -75 19 -14 1 -57 12 -96 26 -38 14 -94
30 -124 35 -30 5 -79 19 -110 30 -31 11 -96 28 -146 38 -49 9 -108 27 -130 38
-22 11 -65 24 -95 27 -89 11 -159 27 -188 42 -15 8 -45 14 -67 14 -41 0 -140
21 -210 44 -22 7 -78 19 -125 25 -47 7 -94 16 -105 21 -39 16 -141 39 -200 46
-33 4 -82 15 -110 25 -27 10 -89 23 -138 29 -48 7 -117 23 -154 36 -36 13 -88
24 -114 24 -55 0 -123 15 -189 40 -25 10 -81 21 -125 25 -99 8 -197 24 -210
34 -15 12 -68 21 -183 31 -98 9 -154 21 -195 41 -9 5 -70 16 -135 24 -118 14
-180 27 -201 39 -6 4 -82 14 -169 22 -156 15 -229 23 -371 42 -48 7 -83 7 -99
1 -36 -14 -52 -4 -52 30 0 18 -9 38 -21 50 -19 18 -21 26 -13 63 15 71 31 74
269 58z m8680 -585 c22 -10 56 -25 75 -34 63 -29 152 -99 207 -163 49 -57 153
-242 153 -272 0 -18 60 -126 70 -126 5 0 15 9 23 20 12 18 13 8 10 -82 -5
-133 -9 -152 -31 -145 -185 56 -238 58 -388 16 -137 -39 -224 -42 -312 -11
-65 23 -156 29 -167 12 -3 -5 -22 -10 -42 -10 -42 0 -125 51 -162 99 -13 17
-30 31 -37 31 -7 0 -18 18 -24 40 -11 41 2 138 35 255 8 28 17 75 20 105 13
104 54 143 259 248 27 13 61 28 75 33 44 14 192 4 236 -16z m1158 -111 c50
-20 122 -52 159 -70 77 -39 197 -146 234 -210 14 -24 53 -68 86 -99 l61 -56
-9 -57 c-9 -61 -9 -166 1 -302 8 -103 -7 -163 -39 -158 -16 2 -21 10 -21 32
-1 19 -8 32 -21 38 -10 5 -28 26 -39 46 -15 27 -27 37 -44 36 -13 0 -29 9 -38
23 -8 12 -22 23 -29 23 -8 0 -24 11 -36 25 -12 14 -28 25 -36 25 -10 0 -12 6
-7 18 5 9 14 41 22 71 8 29 26 64 39 76 52 48 18 148 -74 219 -33 25 -65 46
-70 46 -6 0 -25 12 -42 27 -29 24 -44 27 -139 34 -59 4 -120 13 -135 19 -28
10 -91 5 -111 -10 -5 -4 -27 -13 -47 -19 -20 -7 -42 -19 -48 -27 -7 -7 -20
-14 -30 -14 -10 0 -23 -6 -29 -14 -7 -8 -37 -26 -67 -41 -40 -20 -59 -35 -66
-56 -27 -78 -39 21 -13 107 8 27 15 59 15 72 0 28 40 68 117 117 32 21 70 46
85 56 54 38 121 57 201 58 67 1 90 -4 170 -35z m2247 -11 c95 -26 259 -89 365
-138 66 -31 100 -51 256 -152 35 -23 90 -58 122 -78 32 -21 71 -54 85 -74 25
-34 80 -86 199 -188 28 -23 63 -67 81 -100 18 -33 45 -67 64 -79 59 -38 197
-114 206 -114 21 0 88 -64 104 -98 24 -51 23 -114 -1 -137 -11 -9 -36 -43 -57
-75 -20 -31 -49 -65 -65 -74 -16 -10 -39 -31 -52 -48 -12 -16 -33 -36 -47 -43
-14 -8 -40 -28 -58 -46 -29 -27 -33 -37 -29 -70 3 -28 0 -43 -13 -54 -37 -34
-59 -6 -65 83 -5 82 -24 180 -40 213 -15 27 -14 29 23 66 21 21 57 53 80 72
47 38 46 53 -3 49 -40 -2 -34 -8 -75 69 -29 55 -32 69 -29 130 l4 68 -40 0
c-37 1 -41 4 -62 45 -11 25 -34 52 -50 61 -17 10 -34 31 -43 57 -17 47 -99
125 -195 187 -33 21 -79 51 -102 66 -23 16 -45 29 -50 29 -5 0 -22 13 -38 30
-20 21 -44 33 -84 41 -55 11 -243 87 -288 116 -50 33 -299 20 -378 -20 -64
-33 -165 -117 -171 -143 -3 -13 -12 -24 -20 -24 -19 0 -18 43 2 81 8 17 18 62
21 100 6 66 8 72 44 103 53 45 176 105 224 108 59 5 113 -1 175 -19z m-1217 1
c218 -48 289 -86 474 -251 73 -65 155 -137 183 -161 44 -39 50 -48 50 -83 0
-22 -4 -49 -10 -59 -9 -18 -11 -18 -50 1 -22 11 -40 24 -40 29 0 6 -12 10 -26
10 -20 0 -51 24 -124 98 -115 113 -134 130 -175 156 -86 55 -284 93 -392 76
-90 -15 -219 -91 -330 -196 -20 -19 -38 -32 -41 -29 -11 11 34 190 59 234 23
39 45 58 116 102 50 30 116 60 153 70 82 22 69 22 153 3z m-463 -929 c0 -14
-4 -25 -10 -25 -5 0 -10 11 -10 25 0 14 5 25 10 25 6 0 10 -11 10 -25z m-843
-447 c6 -7 18 -36 27 -65 17 -52 12 -104 -14 -143 -9 -13 -11 -13 -20 0 -5 8
-10 29 -10 46 0 17 -5 56 -11 88 -14 75 0 110 28 74z m4114 -98 c29 -8 46 -24
83 -80 26 -38 53 -84 61 -102 14 -31 62 -106 146 -230 20 -29 60 -100 89 -158
29 -57 63 -119 76 -136 13 -17 24 -35 24 -40 0 -5 6 -20 13 -34 7 -14 22 -49
32 -78 19 -51 19 -54 2 -67 -22 -16 -64 0 -73 28 -3 9 -15 17 -28 17 -28 0
-75 44 -88 82 -16 45 -79 74 -177 82 -30 3 -59 10 -64 15 -6 6 -23 11 -37 11
-37 0 -50 16 -40 50 7 23 4 34 -14 53 -22 23 -22 25 -4 36 10 6 18 22 18 36 0
19 4 23 17 18 13 -5 15 -2 10 17 -3 14 2 38 13 60 18 35 18 36 -1 48 -11 7
-26 30 -35 52 -9 21 -24 42 -35 45 -10 4 -19 10 -19 15 0 10 -141 70 -167 70
-10 1 -29 10 -43 21 -24 20 -24 21 -5 35 10 8 25 15 32 15 7 1 18 2 24 3 15 1
27 32 28 68 2 49 77 71 162 48z m-13744 -52 c28 -12 56 -30 62 -42 5 -12 11
-52 13 -91 4 -68 9 -80 190 -445 102 -206 224 -455 272 -552 47 -97 90 -179
94 -182 16 -10 130 54 311 172 53 35 125 80 161 100 36 19 136 83 223 141 87
58 175 116 195 128 20 12 41 28 47 35 5 8 26 25 45 38 31 22 154 119 172 138
55 53 88 100 88 123 0 61 108 92 164 48 18 -14 26 -30 26 -51 0 -31 0 -31 45
-24 38 5 52 2 85 -19 53 -33 64 -57 57 -122 -6 -58 -29 -103 -52 -103 -7 0
-21 -7 -30 -16 -9 -9 -19 -14 -22 -10 -9 8 -92 -42 -126 -76 -46 -45 -175
-148 -186 -148 -6 0 -18 -11 -27 -25 -9 -14 -27 -31 -39 -38 -13 -6 -70 -47
-127 -90 -56 -42 -125 -92 -153 -109 -27 -17 -63 -44 -80 -59 -33 -30 -197
-135 -350 -224 -149 -87 -233 -143 -244 -163 -6 -12 1 -36 25 -87 18 -38 43
-92 55 -120 11 -27 38 -86 59 -130 21 -44 45 -98 54 -120 9 -22 21 -48 26 -57
20 -36 80 -193 80 -208 0 -8 8 -27 18 -40 14 -20 17 -46 17 -135 0 -105 -1
-112 -28 -146 -16 -22 -39 -39 -56 -42 -18 -4 -36 -18 -48 -37 -21 -35 -58
-49 -78 -29 -7 8 -25 36 -39 63 -14 27 -30 54 -35 60 -4 6 -11 31 -13 56 -10
89 -214 547 -327 733 -37 59 -62 52 -265 -82 -21 -14 -46 -30 -55 -36 -67 -41
-92 -58 -174 -118 -50 -38 -103 -76 -115 -85 -111 -79 -157 -129 -211 -227
-19 -33 -39 -63 -45 -67 -6 -4 -31 -8 -56 -8 -42 0 -50 4 -97 53 -28 28 -65
77 -82 108 -35 62 -35 57 15 164 29 60 309 329 396 380 23 14 120 80 201 138
38 26 88 58 110 70 23 11 56 31 72 43 17 12 40 25 52 28 12 4 25 15 28 25 5
15 -44 115 -123 251 -11 19 -38 69 -60 110 -22 41 -74 133 -116 203 -42 71
-76 131 -76 133 0 3 -13 24 -28 47 -16 23 -36 56 -44 72 -130 252 -162 320
-178 376 -10 37 -23 76 -29 87 -19 36 -13 109 13 160 29 57 70 79 174 97 78
13 98 11 169 -17z m-5956 -535 c7 -16 15 -32 17 -37 3 -4 -6 -5 -19 -1 -30 9
-26 5 -34 38 -10 37 17 37 36 0z m-45 -80 c-1 -48 -18 -52 -39 -9 -15 32 -15
37 -1 51 23 23 41 3 40 -42z m219 6 c7 -11 -53 -71 -64 -64 -16 9 -34 -16 -38
-51 -2 -21 -9 -42 -16 -46 -26 -17 -41 -2 -53 52 -11 48 -10 56 4 67 10 7 25
10 35 7 11 -4 28 2 40 14 31 28 81 40 92 21z m-3997 -48 c11 -7 11 -9 -1 -14
-9 -3 -17 -18 -19 -34 -2 -22 -9 -29 -30 -31 -33 -4 -37 13 -8 28 12 6 20 21
20 35 0 25 14 31 38 16z m23325 -11 c4 -16 0 -20 -18 -20 -31 0 -40 16 -18 29
25 15 30 14 36 -9z m-23449 -80 c3 -19 12 -30 22 -30 20 0 134 -115 134 -136
0 -8 7 -14 15 -14 21 0 66 -30 60 -40 -3 -4 1 -8 8 -7 37 1 47 -5 55 -35 13
-50 1 -92 -27 -96 -14 -2 -31 -10 -38 -18 -14 -14 -62 -10 -73 6 -16 22 -47
27 -85 14 -40 -14 -75 -11 -75 7 0 5 6 18 12 29 10 15 10 22 0 32 -9 9 -12 8
-12 -9 0 -11 -7 -24 -16 -27 -20 -8 -59 15 -59 34 0 11 -9 14 -32 12 -25 -2
-41 6 -82 42 -29 26 -56 46 -61 46 -10 0 -100 83 -100 92 0 3 10 8 21 11 16 4
20 11 16 27 -8 29 36 50 83 39 20 -5 54 -4 81 2 25 5 50 9 55 8 16 -5 52 11
58 26 9 26 33 16 40 -15z m13573 -2 c22 -18 50 -49 62 -68 12 -19 25 -42 30
-50 5 -8 52 -100 103 -205 87 -177 125 -258 161 -345 13 -32 45 -102 132 -285
18 -38 45 -97 60 -130 61 -137 77 -166 89 -171 7 -3 38 9 67 27 30 18 79 45
109 62 103 56 324 210 376 261 6 6 26 25 45 41 40 36 171 191 187 221 6 12 16
49 21 84 13 76 31 100 80 100 28 0 43 -7 63 -30 20 -23 35 -30 61 -30 29 0 40
-6 59 -32 32 -45 32 -163 0 -224 -35 -69 -187 -214 -347 -334 -60 -44 -133
-103 -163 -129 -12 -12 -27 -21 -32 -21 -4 0 -19 -9 -32 -20 -33 -30 -204
-154 -268 -196 -64 -42 -80 -60 -80 -88 0 -12 23 -75 51 -141 50 -116 64 -149
93 -217 23 -55 47 -119 112 -298 15 -41 31 -91 35 -110 4 -19 12 -53 18 -75 6
-22 11 -80 12 -130 1 -78 -2 -97 -25 -141 -26 -51 -83 -107 -142 -137 -42 -21
-75 -5 -89 45 -5 20 -20 46 -33 58 -28 26 -28 30 4 92 50 98 26 184 -121 448
-69 123 -208 348 -241 388 -1 2 -13 -2 -26 -9 -33 -17 -392 -258 -518 -347
-25 -18 -66 -47 -93 -65 -62 -43 -146 -116 -223 -194 -69 -71 -96 -78 -135
-37 -13 14 -36 32 -50 40 -15 7 -37 34 -49 59 -12 25 -31 50 -41 56 -10 5 -19
14 -19 20 0 14 79 119 90 119 5 0 51 34 102 76 164 132 336 267 431 336 50 37
103 76 116 85 52 38 118 83 163 110 35 20 48 34 48 51 0 12 -36 79 -79 148
-88 138 -271 500 -271 535 0 8 -5 19 -53 129 -13 30 -50 134 -82 230 -49 148
-59 189 -63 268 -3 64 -1 92 7 92 6 0 11 9 11 19 0 26 44 59 89 66 20 3 50 10
66 14 56 16 82 12 122 -21z m-13952 -42 c27 -27 25 -69 -3 -59 -54 19 -75 82
-29 83 4 0 19 -11 32 -24z m20025 -453 c0 -12 -6 -42 -14 -65 -7 -24 -19 -90
-26 -148 -19 -170 -31 -190 -103 -175 -40 9 -60 26 -92 81 -37 64 -34 123 11
210 35 67 38 70 117 110 73 37 83 40 95 26 6 -9 12 -26 12 -39z m-19200 -33
c0 -5 -2 -10 -4 -10 -3 0 -8 5 -11 10 -3 6 -1 10 4 10 6 0 11 -4 11 -10z
m-2376 -369 c3 -4 -6 -19 -19 -31 l-25 -24 11 32 c11 32 23 40 33 23z m-214
-180 c0 -33 -5 -63 -11 -66 -14 -9 -16 -6 -22 36 -2 20 -8 43 -12 49 -8 12 18
40 37 40 4 0 8 -27 8 -59z m-260 -105 c0 -11 -19 -15 -25 -6 -3 5 1 10 9 10 9
0 16 -2 16 -4z m-247 -102 c11 -11 -3 -24 -18 -18 -8 4 -12 10 -9 15 6 11 18
12 27 3z m-317 -253 c-3 -5 -17 -8 -31 -8 -14 0 -28 3 -31 8 -3 5 11 9 31 9
20 0 34 -4 31 -9z m15782 -737 c4 -46 -12 -36 -23 15 -6 26 -4 32 6 29 8 -3
15 -22 17 -44z m-983 -951 c101 -18 171 -39 321 -95 30 -11 68 -37 94 -63 40
-41 45 -50 51 -112 16 -144 -62 -193 -140 -89 -24 31 -47 49 -80 61 -25 9 -64
25 -86 35 -49 24 -245 54 -292 45 -18 -3 -49 -19 -67 -35 -19 -17 -42 -30 -53
-30 -25 0 -49 26 -58 63 -4 16 -18 35 -32 44 -18 12 -23 22 -18 37 3 12 8 30
10 41 12 51 53 83 155 119 19 7 80 0 195 -21z m13510 -99 c31 -52 60 -96 66
-99 5 -4 9 -12 9 -19 0 -7 31 -65 69 -128 38 -63 86 -148 106 -189 21 -41 51
-93 66 -116 16 -23 29 -46 29 -51 0 -19 62 -62 88 -62 31 0 162 -25 247 -47
221 -58 479 -160 590 -234 57 -39 179 -170 199 -216 10 -21 24 -51 32 -68 18
-38 47 -162 41 -172 -3 -5 -8 -37 -12 -73 -6 -55 -11 -70 -43 -105 -20 -22
-48 -56 -62 -75 -13 -19 -54 -64 -90 -100 -37 -36 -69 -73 -73 -82 -3 -9 -23
-26 -44 -36 -21 -11 -47 -30 -58 -42 -11 -12 -30 -26 -43 -31 -12 -5 -27 -20
-32 -34 -5 -14 -21 -30 -35 -35 -15 -6 -38 -23 -52 -40 -19 -23 -30 -29 -48
-24 -16 4 -32 -3 -58 -25 -22 -20 -45 -31 -65 -31 -17 0 -33 -4 -36 -9 -3 -4
-27 -14 -53 -21 -27 -7 -55 -19 -64 -27 -9 -8 -39 -17 -67 -22 -28 -4 -62 -15
-75 -24 -37 -24 -94 -12 -112 24 -8 15 -28 37 -45 49 -25 18 -28 25 -20 40 13
24 90 70 118 70 15 0 20 6 19 20 -1 12 -8 20 -19 20 -10 0 -18 4 -18 8 0 14
24 32 43 32 19 0 87 62 87 80 0 16 27 12 33 -5 7 -16 34 -13 67 7 19 12 23 10
41 -11 17 -21 21 -22 37 -9 9 8 39 21 65 29 72 21 145 109 99 121 -18 5 -62
76 -62 101 0 7 -15 28 -34 46 -19 18 -37 45 -41 59 -3 13 -17 39 -31 57 -13
17 -24 37 -24 43 0 6 -11 24 -25 40 -13 16 -33 49 -43 73 -11 25 -27 50 -36
58 -9 7 -16 19 -16 25 0 20 -49 117 -74 147 -14 16 -34 53 -45 83 -11 30 -37
77 -58 105 -21 28 -52 76 -67 108 -16 32 -32 60 -36 63 -16 13 -52 72 -62 102
-6 18 -17 40 -24 48 -13 15 -75 129 -114 208 -12 23 -25 42 -30 42 -5 0 -23
30 -40 68 -17 37 -35 74 -40 82 -6 8 -17 31 -26 50 -9 19 -23 47 -31 63 -23
44 -63 168 -63 195 0 24 1 25 20 7 11 -10 45 -60 75 -111z m-2217 -1931 c44
-69 82 -154 82 -184 0 -15 -8 -37 -19 -50 -10 -13 -28 -43 -40 -66 -27 -53
-57 -57 -95 -13 -42 51 -74 220 -52 275 13 29 68 85 86 85 4 0 22 -21 38 -47z
m17927 -539 c126 -21 191 -80 234 -211 51 -153 31 -300 -57 -428 -38 -54 -79
-80 -162 -100 -61 -15 -81 -16 -155 -5 -102 14 -174 56 -244 140 -76 90 -111
261 -77 374 23 75 82 152 146 190 123 72 126 72 315 40z m-13225 -554 c0 -5
-4 -10 -9 -10 -6 0 -13 5 -16 10 -3 6 1 10 9 10 9 0 16 -4 16 -10z m73 -20
c14 -11 36 -20 50 -20 17 0 32 -11 48 -35 13 -19 30 -35 37 -35 7 0 34 -20 60
-43 26 -24 69 -54 95 -67 44 -20 52 -30 84 -98 20 -41 44 -82 53 -91 46 -44
156 -138 179 -153 14 -10 33 -27 42 -40 16 -20 20 -21 46 -9 16 8 82 15 158
18 126 5 133 5 186 -21 31 -14 60 -26 64 -26 5 0 44 -18 87 -40 202 -104 295
-269 271 -478 -21 -183 -118 -307 -305 -390 -68 -30 -67 -23 -20 -162 9 -25
35 -73 59 -108 24 -35 43 -67 43 -73 0 -10 84 -153 105 -179 18 -22 37 -86 33
-112 l-3 -23 -20 22 c-11 12 -36 45 -55 73 -19 29 -60 87 -91 129 -73 101
-139 212 -158 270 -41 116 -230 361 -280 361 -10 0 -30 17 -46 38 -30 40 -87
82 -111 82 -9 0 -23 4 -33 9 -10 6 -23 6 -31 1 -11 -7 -11 -11 -1 -24 15 -18
8 -46 -12 -46 -18 0 -35 68 -42 170 -6 77 -5 87 14 104 11 10 27 15 38 12 33
-10 43 6 32 52 -5 23 -10 88 -12 145 -2 91 -5 106 -30 144 -15 24 -27 49 -27
57 0 8 -5 18 -10 21 -6 4 -23 35 -40 69 -19 41 -42 73 -67 91 -47 35 -118 107
-133 135 -6 11 -17 20 -25 20 -7 0 -37 26 -67 59 -32 35 -75 69 -108 86 -73
36 -100 62 -100 97 0 33 9 35 43 8z m549 -872 c-9 -9 -12 -7 -12 12 0 19 3 21
12 12 9 -9 9 -15 0 -24z"/>
<path d="M28215 28720 c-3 -5 1 -10 9 -10 9 0 16 5 16 10 0 6 -4 10 -9 10 -6
0 -13 -4 -16 -10z"/>
<path d="M29253 28584 c-3 -8 3 -23 14 -33 15 -15 21 -15 31 -5 17 18 15 41
-4 48 -25 9 -34 7 -41 -10z"/>
<path d="M26435 28470 c3 -5 10 -10 16 -10 5 0 9 5 9 10 0 6 -7 10 -16 10 -8
0 -12 -4 -9 -10z"/>
<path d="M29400 28470 c0 -5 9 -10 20 -10 11 0 20 5 20 10 0 6 -9 10 -20 10
-11 0 -20 -4 -20 -10z"/>
<path d="M25755 28420 c-3 -5 1 -10 9 -10 8 0 18 5 21 10 3 6 -1 10 -9 10 -8
0 -18 -4 -21 -10z"/>
<path d="M25546 28361 c-21 -23 -7 -36 30 -27 27 7 32 31 8 40 -21 8 -18 9
-38 -13z"/>
<path d="M25796 28371 c-4 -5 -13 -8 -21 -4 -10 3 -15 -1 -15 -14 0 -15 8 -19
39 -20 24 -1 44 4 52 13 14 17 12 20 -22 29 -15 4 -30 2 -33 -4z"/>
<path d="M25412 28352 c-26 -4 -41 -30 -24 -41 6 -4 33 -6 59 -6 40 1 48 4 48
20 0 21 -40 33 -83 27z"/>
<path d="M29740 28250 c0 -5 5 -10 10 -10 6 0 10 5 10 10 0 6 -4 10 -10 10 -5
0 -10 -4 -10 -10z"/>
<path d="M29790 28000 c0 -5 5 -10 10 -10 6 0 10 5 10 10 0 6 -4 10 -10 10 -5
0 -10 -4 -10 -10z"/>
<path d="M29760 27979 c0 -5 5 -7 10 -4 6 3 10 8 10 11 0 2 -4 4 -10 4 -5 0
-10 -5 -10 -11z"/>
<path d="M29895 27900 c3 -5 8 -10 11 -10 2 0 4 5 4 10 0 6 -5 10 -11 10 -5 0
-7 -4 -4 -10z"/>
<path d="M26124 18606 c-3 -8 -3 -19 0 -25 7 -10 13 -14 146 -81 47 -24 102
-54 123 -67 65 -41 320 -173 467 -241 115 -54 162 -72 186 -72 24 0 54 33 54
60 0 9 11 39 24 66 13 28 29 70 36 93 14 53 2 71 -56 77 -22 3 -77 13 -124 24
-47 10 -110 23 -140 28 -30 6 -84 18 -120 26 -36 9 -92 21 -125 27 -33 6 -116
23 -185 39 -69 16 -152 34 -185 40 -33 6 -68 14 -78 16 -10 3 -20 -1 -23 -10z"/>
<path d="M27380 18314 c-6 -16 -17 -42 -25 -59 -26 -54 -77 -205 -73 -217 5
-13 125 -54 213 -73 33 -7 96 -22 140 -33 44 -11 117 -26 163 -34 72 -13 86
-13 98 -1 8 8 14 21 14 28 0 8 13 53 29 102 39 117 48 184 27 202 -9 7 -23 10
-32 7 -9 -4 -22 -3 -28 2 -6 5 -45 16 -86 25 -41 10 -124 28 -183 42 -60 14
-140 28 -178 31 l-68 7 -11 -29z"/>
<path d="M28196 18178 c-26 -87 -37 -128 -56 -210 -12 -54 -20 -105 -16 -113
4 -12 26 -15 110 -15 l105 0 25 33 c15 19 35 60 46 92 11 32 25 64 30 70 6 7
15 27 20 44 7 27 6 33 -15 47 -14 9 -33 12 -49 8 -14 -3 -34 -3 -43 1 -22 9
-147 55 -151 55 -1 0 -4 -6 -6 -12z"/>
<path d="M28680 18068 c-16 -26 -79 -197 -80 -217 0 -5 73 6 125 18 272 63
405 100 405 111 0 5 -19 14 -42 20 -24 6 -63 16 -87 22 -24 6 -55 12 -70 13
-14 1 -62 12 -106 25 -122 34 -128 35 -145 8z"/>
<path d="M26071 23671 c-8 -14 -2 -35 26 -92 20 -41 46 -90 58 -109 12 -19 26
-46 30 -60 4 -14 13 -32 20 -40 7 -8 26 -40 42 -70 17 -30 47 -84 68 -120 21
-36 50 -87 65 -115 43 -81 100 -174 109 -180 5 -3 12 -19 16 -35 8 -34 45 -62
45 -34 0 9 -13 39 -30 66 -16 26 -30 51 -30 55 0 3 -62 130 -139 282 -241 481
-254 501 -280 452z"/>
<path d="M29805 22927 c-7 -17 9 -92 35 -157 11 -30 32 -89 46 -130 13 -41 28
-84 33 -95 6 -11 26 -60 47 -110 43 -107 91 -206 140 -295 20 -36 49 -90 66
-120 16 -30 54 -95 86 -143 44 -69 61 -87 77 -85 32 5 30 45 -4 115 -17 35
-44 91 -60 126 -17 34 -55 116 -86 182 -53 111 -87 185 -120 260 -34 77 -196
404 -214 433 -22 34 -38 41 -46 19z"/>
<path d="M42323 18853 c-37 -4 -43 -7 -43 -28 0 -12 17 -52 38 -86 22 -35 60
-104 87 -154 26 -49 70 -130 98 -180 62 -112 127 -250 134 -287 10 -49 72 -47
121 3 61 64 101 121 106 156 17 100 15 115 -18 145 -17 16 -43 40 -58 54 -31
28 -36 44 -13 44 16 0 31 43 20 59 -8 14 -52 14 -61 0 -4 -7 -11 -2 -18 12 -6
13 -22 29 -36 36 -13 6 -31 21 -40 32 -8 10 -35 30 -60 44 -36 20 -46 31 -48
54 -3 26 -6 29 -28 25 -13 -2 -24 0 -24 7 0 5 -7 8 -16 4 -10 -3 -27 7 -48 31
-19 20 -38 35 -42 34 -5 -1 -28 -3 -51 -5z"/>
</g>
</svg>
